<svg width="128" height="128" viewBox="0 0 128 128" fill="none" xmlns="http://www.w3.org/2000/svg">
<g clip-path="url(#clip0_2088_369)">
<path d="M52.3003 37.8305C51.4093 37.8305 50.9591 36.6383 51.61 36.0462L54.6093 33.3177C54.798 33.1459 55.0441 33.0508 55.2993 33.0508C55.5545 33.0508 55.8006 33.1459 55.9894 33.3177L58.9872 36.0443C59.0887 36.1344 59.1712 36.2437 59.2301 36.366C59.289 36.4883 59.323 36.621 59.3302 36.7565C59.3374 36.892 59.3176 37.0276 59.2721 37.1554C59.2265 37.2832 59.156 37.4007 59.0647 37.5011C58.9734 37.6015 58.8631 37.6827 58.7402 37.7402C58.6173 37.7976 58.4842 37.8301 58.3486 37.8357C58.213 37.8414 58.0777 37.82 57.9504 37.773C57.8231 37.726 57.7065 37.6541 57.6071 37.5617L55.2993 35.4628L52.9901 37.5633C52.8017 37.7355 52.5556 37.8308 52.3003 37.8305ZM56.8391 42.4596C56.8345 43.5139 56.0996 44.3716 55.1976 44.3755C54.2955 44.379 53.5683 43.5273 53.5729 42.473C53.5776 41.4186 54.3125 40.5609 55.2145 40.5571C56.1165 40.5533 56.8438 41.4049 56.8391 42.4596ZM75.674 37.7094C75.4279 37.7094 75.1806 37.6213 74.9842 37.4424L72.675 35.3419L70.3672 37.4408C70.2676 37.5314 70.1511 37.6015 70.0243 37.6471C69.8976 37.6928 69.7631 37.713 69.6286 37.7066C69.494 37.7002 69.3621 37.6674 69.2402 37.6101C69.1183 37.5527 69.0089 37.4719 68.9183 37.3723C68.8277 37.2726 68.7575 37.1561 68.7119 37.0294C68.6663 36.9026 68.6461 36.7682 68.6525 36.6336C68.6589 36.4991 68.6917 36.3671 68.749 36.2452C68.8064 36.1234 68.8872 36.014 68.9868 35.9234L71.9847 33.1968C72.1736 33.0251 72.4196 32.9299 72.6749 32.9299C72.9301 32.9299 73.1762 33.0251 73.3651 33.1968L76.3646 35.9253C77.0153 36.5169 76.5651 37.7094 75.674 37.7094ZM74.4011 42.339C74.397 43.3933 73.6627 44.2508 72.7606 44.2538C71.8586 44.257 71.1308 43.4048 71.1349 42.3502C71.139 41.2955 71.8734 40.4384 72.7754 40.4354C73.6771 40.4324 74.4052 41.2846 74.4011 42.339ZM67.822 53.6916H60.1783C59.9063 53.6916 59.6455 53.5835 59.4531 53.3912C59.2608 53.1988 59.1527 52.938 59.1527 52.6659C59.1527 52.3939 59.2608 52.133 59.4531 51.9407C59.6455 51.7484 59.9063 51.6403 60.1783 51.6403H67.822C68.094 51.6403 68.3549 51.7484 68.5472 51.9407C68.7396 52.133 68.8476 52.3939 68.8476 52.6659C68.8476 52.938 68.7396 53.1988 68.5472 53.3912C68.3549 53.5835 68.094 53.6916 67.822 53.6916Z" fill="white"/>
<path d="M11.7358 13.885C12.8296 13.885 13.7163 12.9983 13.7163 11.9045C13.7163 10.8107 12.8296 9.92407 11.7358 9.92407C10.642 9.92407 9.75537 10.8107 9.75537 11.9045C9.75537 12.9983 10.642 13.885 11.7358 13.885Z" fill="white"/>
<path d="M115.12 13.885C116.214 13.885 117.101 12.9983 117.101 11.9045C117.101 10.8107 116.214 9.92407 115.12 9.92407C114.027 9.92407 113.14 10.8107 113.14 11.9045C113.14 12.9983 114.027 13.885 115.12 13.885Z" fill="white"/>
<path d="M18.2197 52.1859C19.2016 52.1859 19.9975 51.39 19.9975 50.4081C19.9975 49.4263 19.2016 48.6304 18.2197 48.6304C17.2379 48.6304 16.442 49.4263 16.442 50.4081C16.442 51.39 17.2379 52.1859 18.2197 52.1859Z" fill="white"/>
<path d="M110.054 52.8698C111.036 52.8698 111.831 52.0738 111.831 51.092C111.831 50.1101 111.036 49.3142 110.054 49.3142C109.072 49.3142 108.276 50.1101 108.276 51.092C108.276 52.0738 109.072 52.8698 110.054 52.8698Z" fill="white"/>
<path d="M119.582 68.4373L114.142 56.1688C114.067 56.0006 113.959 55.8492 113.825 55.7238C113.69 55.5984 113.531 55.5016 113.358 55.4391C113.185 55.3765 113.001 55.3497 112.817 55.3601C112.634 55.3704 112.454 55.4179 112.289 55.4995L100.67 61.239L99.5766 58.7091C99.2949 58.1694 98.8764 57.8946 98.3212 57.8842C97.5248 57.8842 96.5905 58.5209 95.889 58.8302C94.5934 59.4019 93.0675 58.8548 92.4871 57.6109L90.1779 52.6594C89.5426 51.2971 90.3778 49.7351 91.7897 49.3394L98.217 47.5367C100.474 46.9052 102.882 47.1112 104.999 48.1168C105.204 48.2142 105.427 48.2765 105.654 48.2735C107.092 48.2555 107.525 46.3024 106.221 45.6752C103.582 44.4067 100.478 44.0621 97.4783 44.9034L91.0509 46.7061C88.0629 47.5443 86.3672 50.9588 87.6994 53.8158L90.0086 58.7673C91.366 61.678 94.8967 62.4511 97.6131 61.0596L101.431 69.8905C97.4676 68.582 93.4652 69.969 90.9982 73.2756C85.8834 69.0894 79.4139 69.4589 73.2351 69.4589V66.8718C73.2351 66.5091 73.0911 66.1613 72.8346 65.9048C72.5782 65.6484 72.2303 65.5043 71.8676 65.5043C71.5049 65.5043 71.1571 65.6484 70.9006 65.9048C70.6442 66.1613 70.5001 66.5091 70.5001 66.8718V70.8767C70.5001 74.513 67.5244 77.585 63.8887 77.5234C60.3558 77.4638 57.4999 74.5712 57.4999 71.0241V62.2381C69.8858 65.9873 83.2673 58.0893 85.9788 45.4299C89.9643 45.6306 93.4001 42.3147 93.4001 38.3344C93.4001 35.5996 91.8512 33.2239 89.5896 32.0358C89.9522 30.3735 90.1351 28.6771 90.1353 26.9757C90.1353 12.7513 77.9225 0.273504 64 0.273504C49.3448 0.273504 37.865 12.0027 37.865 26.976C37.865 28.6887 38.0505 30.3841 38.4112 32.0397C36.1499 33.2278 34.5999 35.6001 34.5999 38.3346C34.5999 42.2539 37.777 45.4425 41.6823 45.4425C41.7964 45.4425 41.9091 45.4359 42.0217 45.4302C43.5304 52.474 48.349 58.3029 54.7651 61.2073V69.4586C48.5826 69.4586 42.1235 69.0836 37.0024 73.2754C34.5365 69.9701 30.5348 68.5812 26.5693 69.8902L30.3874 61.059L31.0072 61.3325C33.6542 62.5009 36.7874 61.3497 37.9917 58.767L40.3009 53.8155C41.6339 50.9577 39.9346 47.5433 36.9493 46.7058L30.522 44.9034C28.023 44.2024 25.4512 44.326 23.1357 45.1203C22.5923 45.3068 22.1834 45.7895 22.1558 46.3634C22.1084 47.3441 23.0635 48.0339 23.9765 47.7167C25.8482 47.0642 27.875 47.0015 29.7835 47.537L36.2109 49.3396C37.6227 49.7354 38.4574 51.2976 37.8224 52.6597L35.5129 57.6112C34.9328 58.8551 33.4069 59.4018 32.1113 58.8305L30.231 58.0007C29.4318 57.7351 28.8293 57.9711 28.4237 58.7091L27.2938 61.0489L15.7407 55.5572C15.5763 55.479 15.398 55.4345 15.2162 55.4262C15.0343 55.4178 14.8526 55.4459 14.6818 55.5087C14.5109 55.5715 14.3543 55.6677 14.2212 55.7918C14.088 55.9159 13.981 56.0654 13.9063 56.2314L8.41819 68.4371C3.28014 79.8638 13.568 90.2225 24.4896 91.223C28.6761 91.607 32.3679 90.9804 34.0737 90.6092C34.5235 91.2554 35.0347 91.8566 35.6001 92.4045V121.157C35.6001 124.93 38.6664 128 42.4353 128H85.486C89.245 128 92.3113 124.938 92.3211 121.175L92.3979 92.4062C92.964 91.8578 93.4757 91.256 93.926 90.6092C103.813 92.7593 115.128 90.3229 119.627 80.387C121.326 76.6356 121.31 72.2801 119.582 68.4373ZM90.665 38.3346C90.665 40.7221 88.7527 42.6656 86.3885 42.7039C86.4771 41.6938 86.487 40.6791 86.4788 39.6661C87.441 38.1245 88.2268 36.4795 88.8211 34.7621C89.3915 35.1669 89.8566 35.7026 90.1775 36.3242C90.4983 36.9457 90.6655 37.6351 90.665 38.3346ZM37.3347 38.3346C37.3347 36.861 38.0663 35.5605 39.1809 34.769C39.775 36.4845 40.5602 38.1278 41.5215 39.668C41.513 40.6805 41.5231 41.6946 41.6118 42.7039C39.2473 42.6656 37.3347 40.7218 37.3347 38.3346ZM44.2565 40.7218V40.4833C45.9422 39.6472 47.0597 37.9088 47.0597 35.9877V25.8702C51.2243 28.2399 57.4241 29.6547 63.9995 29.6547C70.5813 29.6547 76.785 28.2377 80.9496 25.8645V35.9839C80.9496 37.9009 82.0636 39.6371 83.7437 40.4751C83.8518 51.3151 74.86 60.465 64 60.465C53.1134 60.4652 44.2565 51.6083 44.2565 40.7218ZM23.2479 10.964H20.7658C20.5532 9.64424 20.0342 8.39273 19.2503 7.30995L21.0117 5.54448C21.2661 5.28736 21.4082 4.93994 21.4071 4.57825C21.4059 4.21657 21.2615 3.87008 21.0054 3.61462C20.7494 3.35916 20.4026 3.21553 20.0409 3.21517C19.6792 3.21482 19.3321 3.35776 19.0756 3.61272L17.3177 5.37463C16.2391 4.5911 14.9915 4.07181 13.6755 3.8586V1.36752C13.6755 1.00483 13.5314 0.656998 13.275 0.400538C13.0185 0.144078 12.6707 0 12.308 0C11.9453 0 11.5974 0.144078 11.341 0.400538C11.0845 0.656998 10.9404 1.00483 10.9404 1.36752V3.8586C9.6244 4.07176 8.37681 4.59105 7.29819 5.37463L5.54038 3.61272C5.28383 3.35776 4.93674 3.21482 4.57505 3.21517C4.21336 3.21553 3.86655 3.35916 3.61051 3.61462C3.35447 3.87008 3.21005 4.21657 3.20888 4.57825C3.20771 4.93994 3.34986 5.28736 3.60424 5.54448L5.36561 7.30995C4.58159 8.39265 4.06252 9.64419 3.85012 10.964H1.36752C1.00483 10.964 0.656998 11.108 0.400538 11.3645C0.144078 11.621 0 11.9688 0 12.3315C0 12.6942 0.144078 13.042 0.400538 13.2985C0.656998 13.5549 1.00483 13.699 1.36752 13.699H3.84957C4.06209 15.0188 4.58115 16.2703 5.36506 17.353L3.60369 19.1182C2.08492 20.6405 4.17094 22.4274 5.63145 20.9586C6.09395 20.4937 6.82858 19.7588 7.29791 19.2883C8.37656 20.0719 9.62414 20.5912 10.9402 20.8044V23.2955C10.9402 23.6581 11.0842 24.006 11.3407 24.2624C11.5972 24.5189 11.945 24.663 12.3077 24.663C12.6704 24.663 13.0182 24.5189 13.2747 24.2624C13.5311 24.006 13.6752 23.6581 13.6752 23.2955V20.8044C14.9913 20.5912 16.2388 20.0719 17.3175 19.2883L19.0753 21.05C20.3247 22.3018 22.2602 20.3695 21.0114 19.1182L19.2501 17.353C20.0341 16.2703 20.5531 15.0188 20.7655 13.699H23.2479C23.6106 13.699 23.9584 13.5549 24.2148 13.2985C24.4713 13.042 24.6154 12.6942 24.6154 12.3315C24.6154 11.9688 24.4713 11.621 24.2148 11.3645C23.9584 11.108 23.6106 10.964 23.2479 10.964ZM12.3077 18.1804C9.09128 18.1804 6.47467 15.5567 6.47467 12.3318C6.47467 9.10687 9.09128 6.48287 12.3077 6.48287C15.5241 6.48287 18.1407 9.1066 18.1407 12.3315C18.1407 15.5564 15.5241 18.1804 12.3077 18.1804ZM126.632 10.964H124.15C123.938 9.64422 123.419 8.39271 122.635 7.30995L124.396 5.54475C124.526 5.41823 124.629 5.26725 124.699 5.10058C124.77 4.93391 124.807 4.75487 124.808 4.57383C124.809 4.3928 124.774 4.21337 124.705 4.04597C124.636 3.87857 124.534 3.72652 124.406 3.59864C124.278 3.47076 124.126 3.3696 123.958 3.30103C123.791 3.23245 123.611 3.19783 123.43 3.19916C123.249 3.2005 123.07 3.23777 122.904 3.3088C122.737 3.37984 122.586 3.48324 122.46 3.61299L120.702 5.37491C119.623 4.59128 118.376 4.0719 117.06 3.8586V1.36752C117.06 1.00483 116.916 0.656998 116.659 0.400538C116.403 0.144078 116.055 0 115.692 0C115.33 0 114.982 0.144078 114.725 0.400538C114.469 0.656998 114.325 1.00483 114.325 1.36752V3.8586C113.009 4.07174 111.761 4.59113 110.683 5.37491L108.924 3.61299C108.798 3.48324 108.647 3.37984 108.481 3.3088C108.314 3.23777 108.135 3.2005 107.954 3.19916C107.773 3.19783 107.594 3.23245 107.426 3.30103C107.259 3.3696 107.107 3.47076 106.978 3.59864C106.85 3.72652 106.749 3.87857 106.68 4.04597C106.611 4.21337 106.576 4.3928 106.577 4.57383C106.578 4.75487 106.615 4.93391 106.685 5.10058C106.756 5.26725 106.859 5.41823 106.989 5.54475L108.75 7.30995C107.966 8.39265 107.447 9.64419 107.234 10.964H104.752C104.389 10.964 104.042 11.108 103.785 11.3645C103.529 11.621 103.385 11.9688 103.385 12.3315C103.385 12.6942 103.529 13.042 103.785 13.2985C104.042 13.5549 104.389 13.699 104.752 13.699H107.234C107.447 15.0188 107.966 16.2703 108.75 17.353L106.988 19.1182C105.739 20.3695 107.675 22.3018 108.924 21.05L110.682 19.2881C111.761 20.0716 113.008 20.5909 114.325 20.8041V23.2952C114.325 23.6579 114.469 24.0057 114.725 24.2622C114.982 24.5186 115.329 24.6627 115.692 24.6627C116.055 24.6627 116.403 24.5186 116.659 24.2622C116.915 24.0057 117.06 23.6579 117.06 23.2952V20.8041C118.376 20.5909 119.623 20.0717 120.702 19.2881L122.46 21.05C123.709 22.3021 125.645 20.3692 124.396 19.1182L122.634 17.353C123.418 16.2704 123.937 15.0188 124.15 13.699H126.632C126.995 13.699 127.343 13.5549 127.599 13.2985C127.856 13.042 128 12.6942 128 12.3315C128 11.9688 127.856 11.621 127.599 11.3645C127.343 11.108 126.995 10.964 126.632 10.964ZM115.692 18.1804C112.476 18.1804 109.86 15.5567 109.86 12.3318C109.86 9.10687 112.476 6.48287 115.692 6.48287C118.909 6.48287 121.525 9.1066 121.525 12.3315C121.525 15.5564 118.909 18.1804 115.692 18.1804Z" fill="white"/>
</g>
<defs>
<clipPath id="clip0_2088_369">
<rect width="128" height="128" fill="white"/>
</clipPath>
</defs>
</svg>
