<svg width="128" height="128" viewBox="0 0 128 128" fill="none" xmlns="http://www.w3.org/2000/svg">
<path d="M48 40C53.8909 40 58.6667 35.2242 58.6667 29.3333C58.6667 23.4423 53.8909 18.6666 48 18.6666C42.1091 18.6666 37.3333 23.4423 37.3333 29.3333C37.3333 35.2242 42.1091 40 48 40ZM33.3763 55.8277C33.8067 55.3114 34.2381 54.8352 34.6667 54.3981V101.333C34.6667 104.164 36.8784 106.502 39.7051 106.658C42.5317 106.815 44.9883 104.736 45.3008 101.922L47.4403 82.6666H48.5597L50.6995 101.922C51.012 104.736 53.4683 106.815 56.2949 106.658C59.1216 106.502 61.3333 104.164 61.3333 101.333V64.9608C61.7317 62.8386 63.2301 59.7637 65.5899 56.8752C67.704 59.4744 69.1245 62.2253 69.676 64.2978C69.6184 68.7016 66.076 85.18 64.6176 91.7893C64.2853 93.2946 65.2917 94.7653 66.8192 94.9746C76.6667 96.3242 85.1749 96.3226 94.9405 95.081C96.7637 94.8493 97.8269 92.8298 97.1661 91.1149C95.2 86.0144 92.0003 75.4176 92.0003 60.4741V52.6709C93.0421 53.4744 94.1344 54.5237 95.2219 55.8277C98.0395 59.2058 99.7891 63.0746 100.018 65.4794C100.227 67.6786 102.18 69.2917 104.379 69.0824C106.578 68.8728 108.191 66.9202 107.982 64.721C107.546 60.1448 104.779 54.7968 101.365 50.7034C98.0475 46.7253 93.0485 42.6666 87.4408 42.6666H75.0981C71.6773 42.6666 68.4291 44.0405 65.5997 45.9952C62.7803 44.041 59.5416 42.6666 56.1285 42.6666H41.1573C35.5496 42.6666 30.5507 46.7253 27.2328 50.7034C23.8186 54.7968 21.0518 60.1448 20.6159 64.721C20.4065 66.9202 22.0195 68.8728 24.2187 69.0824C26.4179 69.2917 28.3704 67.6786 28.58 65.4794C28.8091 63.0746 30.5584 59.2058 33.3763 55.8277Z" fill="white"/>
<path d="M16 76C16 72.3181 18.9848 69.3333 22.6667 69.3333C26.3486 69.3333 29.3333 72.3181 29.3333 76V104C29.3333 105.473 28.1395 106.667 26.6667 106.667C25.1939 106.667 24 105.473 24 104V76C24 75.2637 23.403 74.6666 22.6667 74.6666C21.9303 74.6666 21.3333 75.2637 21.3333 76V78.7008C21.3333 80.1736 20.1394 81.3674 18.6667 81.3674C17.1939 81.3674 16 80.1736 16 78.7008V76ZM81.3336 40C87.2245 40 92.0003 35.2242 92.0003 29.3333C92.0003 23.4423 87.2245 18.6666 81.3336 18.6666C75.4427 18.6666 70.6669 23.4423 70.6669 29.3333C70.6669 35.2242 75.4427 40 81.3336 40ZM105.334 69.3333C101.652 69.3333 98.6669 72.3181 98.6669 76V78.7008C98.6669 80.1736 99.8608 81.3674 101.334 81.3674C102.806 81.3674 104 80.1736 104 78.7008V76C104 75.2637 104.597 74.6666 105.334 74.6666C106.07 74.6666 106.667 75.2637 106.667 76V104C106.667 105.473 107.861 106.667 109.334 106.667C110.806 106.667 112 105.473 112 104V76C112 72.3181 109.015 69.3333 105.334 69.3333ZM68 105.034V99.0706C71.3333 99.4922 74.4707 99.7416 77.5672 99.8229L75.8589 106.086C75.3317 108.02 73.4552 109.264 71.4691 108.998C69.4829 108.732 68 107.038 68 105.034ZM86.8077 106.086L85.064 99.6928C88.1352 99.5085 91.2872 99.1653 94.6667 98.6666V105.034C94.6667 107.038 93.1837 108.732 91.1976 108.998C89.2115 109.264 87.3349 108.02 86.8077 106.086Z" fill="white"/>
</svg>
